MutatorSansInstance_600-0.ufo
<glyph name="comma" format="2">
  <advance width="218"/>
  <unicode hex="002C"/>
  <outline>
    <contour>
      <point x="176" y="0" type="line"/>
      <point x="176" y="228" type="line"/>
      <point x="42" y="228" type="line"/>
      <point x="42" y="0" type="line"/>
      <point x="103" y="-13" type="line"/>
      <point x="93" y="12" type="line"/>
      <point x="71" y="-123" type="line"/>
      <point x="119" y="-125" type="line"/>
    </contour>
  </outline>
</glyph>
<glyph name="A" format="2">
  <advance width="604"/>
  <unicode hex="0041"/>
  <outline>
    <contour>
      <point x="14" y="0" type="line"/>
      <point x="174" y="0" type="line"/>
      <point x="276" y="760" type="line"/>
      <point x="136" y="760" type="line"/>
    </contour>
    <contour>
      <point x="96" y="138" type="line"/>
      <point x="478" y="138" type="line"/>
      <point x="478" y="278" type="line"/>
      <point x="96" y="278" type="line"/>
    </contour>
    <contour>
      <point x="367" y="0" type="line"/>
      <point x="588" y="0" type="line"/>
      <point x="465" y="760" type="line"/>
      <point x="257" y="760" type="line"/>
    </contour>
    <contour>
      <point x="188" y="588" type="line"/>
      <point x="378" y="588" type="line"/>
      <point x="378" y="760" type="line"/>
      <point x="188" y="760" type="line"/>
    </contour>
  </outline>
</glyph>
<glyph name="B" format="2">
  <advance width="603"/>
  <unicode hex="0042"/>
  <outline>
    <contour>
      <point x="42" y="0" type="line"/>
      <point x="244" y="0" type="line"/>
      <point x="244" y="760" type="line"/>
      <point x="42" y="760" type="line"/>
    </contour>
    <contour>
      <point x="200" y="341" type="line"/>
      <point x="291" y="341" type="line" smooth="yes"/>
      <point x="350" y="341"/>
      <point x="384" y="312"/>
      <point x="384" y="248" type="curve" smooth="yes"/>
      <point x="384" y="187"/>
      <point x="349" y="157"/>
      <point x="287" y="157" type="curve" smooth="yes"/>
      <point x="200" y="157" type="line"/>
      <point x="200" y="0" type="line"/>
      <point x="314" y="0" type="line" smooth="yes"/>
      <point x="528" y="0"/>
      <point x="581" y="88"/>
      <point x="581" y="211" type="curve" smooth="yes"/>
      <point x="581" y="323"/>
      <point x="528" y="391"/>
      <point x="424" y="405" type="curve"/>
      <point x="426" y="366" type="line"/>
      <point x="508" y="382"/>
      <point x="567" y="442"/>
      <point x="567" y="545" type="curve" smooth="yes"/>
      <point x="567" y="674"/>
      <point x="509" y="760"/>
      <point x="303" y="760" type="curve" smooth="yes"/>
      <point x="200" y="760" type="line"/>
      <point x="200" y="610" type="line"/>
      <point x="283" y="610" type="line" smooth="yes"/>
      <point x="348" y="610"/>
      <point x="376" y="580"/>
      <point x="376" y="521" type="curve" smooth="yes"/>
      <point x="376" y="457"/>
      <point x="342" y="429"/>
      <point x="283" y="429" type="curve" smooth="yes"/>
      <point x="200" y="429" type="line"/>
    </contour>
  </outline>
</glyph>
<glyph name="C" format="2">
  <advance width="693"/>
  <unicode hex="0043"/>
  <outline>
    <contour>
      <point x="471" y="332" type="line"/>
      <point x="465" y="204"/>
      <point x="428" y="163"/>
      <point x="358" y="163" type="curve" smooth="yes"/>
      <point x="349" y="163" type="line" smooth="yes"/>
      <point x="278" y="163"/>
      <point x="241" y="220"/>
      <point x="241" y="383" type="curve" smooth="yes"/>
      <point x="241" y="542"/>
      <point x="278" y="597"/>
      <point x="349" y="597" type="curve" smooth="yes"/>
      <point x="358" y="597" type="line" smooth="yes"/>
      <point x="427" y="597"/>
      <point x="464" y="558"/>
      <point x="471" y="434" type="curve"/>
      <point x="661" y="453" type="line"/>
      <point x="643" y="673"/>
      <point x="531" y="770"/>
      <point x="363" y="770" type="curve" smooth="yes"/>
      <point x="344" y="770" type="line" smooth="yes"/>
      <point x="152" y="770"/>
      <point x="32" y="653"/>
      <point x="32" y="383" type="curve" smooth="yes"/>
      <point x="32" y="110"/>
      <point x="152" y="-10"/>
      <point x="344" y="-10" type="curve" smooth="yes"/>
      <point x="363" y="-10" type="line" smooth="yes"/>
      <point x="532" y="-10"/>
      <point x="644" y="90"/>
      <point x="661" y="313" type="curve"/>
    </contour>
  </outline>
</glyph>
<glyph name="D" format="2">
  <advance width="639"/>
  <unicode hex="0044"/>
  <outline>
    <contour>
      <point x="42" y="0" type="line"/>
      <point x="231" y="0" type="line"/>
      <point x="231" y="760" type="line"/>
      <point x="42" y="760" type="line"/>
    </contour>
    <contour>
      <point x="192" y="593" type="line"/>
      <point x="274" y="593" type="line" smooth="yes"/>
      <point x="353" y="593"/>
      <point x="398" y="542"/>
      <point x="398" y="383" type="curve" smooth="yes"/>
      <point x="398" y="220"/>
      <point x="353" y="167"/>
      <point x="274" y="167" type="curve" smooth="yes"/>
      <point x="187" y="167" type="line"/>
      <point x="187" y="0" type="line"/>
      <point x="279" y="0" type="line" smooth="yes"/>
      <point x="477" y="0"/>
      <point x="607" y="114"/>
      <point x="607" y="383" type="curve" smooth="yes"/>
      <point x="607" y="649"/>
      <point x="477" y="760"/>
      <point x="279" y="760" type="curve" smooth="yes"/>
      <point x="192" y="760" type="line"/>
    </contour>
  </outline>
</glyph>
<glyph name="E" format="2">
  <advance width="512"/>
  <unicode hex="0045"/>
  <anchor x="270" y="803" name="top"/>
  <outline>
    <contour>
      <point x="48" y="0" type="line"/>
      <point x="238" y="0" type="line"/>
      <point x="238" y="760" type="line"/>
      <point x="48" y="760" type="line"/>
    </contour>
    <contour>
      <point x="110" y="584" type="line"/>
      <point x="478" y="584" type="line"/>
      <point x="478" y="760" type="line"/>
      <point x="110" y="760" type="line"/>
    </contour>
    <contour>
      <point x="110" y="0" type="line"/>
      <point x="478" y="0" type="line"/>
      <point x="478" y="176" type="line"/>
      <point x="110" y="176" type="line"/>
    </contour>
    <contour>
      <point x="110" y="323" type="line"/>
      <point x="450" y="323" type="line"/>
      <point x="450" y="439" type="line"/>
      <point x="110" y="439" type="line"/>
    </contour>
  </outline>
</glyph>
<glyph name="F" format="2">
  <advance width="496"/>
  <unicode hex="0046"/>
  <outline>
    <contour>
      <point x="42" y="0" type="line"/>
      <point x="250" y="0" type="line"/>
      <point x="250" y="760" type="line"/>
      <point x="42" y="760" type="line"/>
    </contour>
    <contour>
      <point x="110" y="596" type="line"/>
      <point x="454" y="596" type="line"/>
      <point x="454" y="760" type="line"/>
      <point x="110" y="760" type="line"/>
    </contour>
    <contour>
      <point x="110" y="291" type="line"/>
      <point x="438" y="291" type="line"/>
      <point x="438" y="431" type="line"/>
      <point x="110" y="431" type="line"/>
    </contour>
  </outline>
</glyph>
<glyph name="G" format="2">
  <advance width="702"/>
  <unicode hex="0047"/>
  <outline>
    <contour>
      <point x="352" y="303" type="line"/>
      <point x="516" y="303" type="line"/>
      <point x="516" y="216" type="line"/>
      <point x="579" y="0" type="line"/>
      <point x="658" y="0" type="line"/>
      <point x="658" y="380" type="line"/>
      <point x="352" y="380" type="line"/>
    </contour>
    <contour>
      <point x="483" y="340" type="line"/>
      <point x="477" y="204"/>
      <point x="436" y="163"/>
      <point x="358" y="163" type="curve" smooth="yes"/>
      <point x="349" y="163" type="line" smooth="yes"/>
      <point x="278" y="163"/>
      <point x="241" y="220"/>
      <point x="241" y="383" type="curve" smooth="yes"/>
      <point x="241" y="542"/>
      <point x="284" y="597"/>
      <point x="362" y="597" type="curve" smooth="yes"/>
      <point x="371" y="597" type="line" smooth="yes"/>
      <point x="442" y="597"/>
      <point x="476" y="558"/>
      <point x="483" y="434" type="curve"/>
      <point x="655" y="453" type="line"/>
      <point x="637" y="673"/>
      <point x="532" y="770"/>
      <point x="367" y="770" type="curve" smooth="yes"/>
      <point x="347" y="770" type="line" smooth="yes"/>
      <point x="156" y="770"/>
      <point x="32" y="653"/>
      <point x="32" y="383" type="curve" smooth="yes"/>
      <point x="32" y="110"/>
      <point x="152" y="-10"/>
      <point x="344" y="-10" type="curve" smooth="yes"/>
      <point x="363" y="-10" type="line" smooth="yes"/>
      <point x="529" y="-10"/>
      <point x="632" y="90"/>
      <point x="646" y="321" type="curve"/>
    </contour>
  </outline>
</glyph>
<glyph name="H" format="2">
  <advance width="634"/>
  <unicode hex="0048"/>
  <outline>
    <contour>
      <point x="42" y="0" type="line"/>
      <point x="250" y="0" type="line"/>
      <point x="250" y="760" type="line"/>
      <point x="42" y="760" type="line"/>
    </contour>
    <contour>
      <point x="116" y="290" type="line"/>
      <point x="518" y="290" type="line"/>
      <point x="518" y="460" type="line"/>
      <point x="116" y="460" type="line"/>
    </contour>
    <contour>
      <point x="384" y="0" type="line"/>
      <point x="592" y="0" type="line"/>
      <point x="592" y="760" type="line"/>
      <point x="384" y="760" type="line"/>
    </contour>
  </outline>
</glyph>
<glyph name="I" format="2">
  <advance width="464"/>
  <unicode hex="0049"/>
  <outline>
    <contour>
      <point x="128" y="0" type="line"/>
      <point x="336" y="0" type="line"/>
      <point x="336" y="760" type="line"/>
      <point x="128" y="760" type="line"/>
    </contour>
    <contour>
      <point x="42" y="578" type="line"/>
      <point x="422" y="578" type="line"/>
      <point x="422" y="760" type="line"/>
      <point x="42" y="760" type="line"/>
    </contour>
    <contour>
      <point x="42" y="0" type="line"/>
      <point x="422" y="0" type="line"/>
      <point x="422" y="182" type="line"/>
      <point x="42" y="182" type="line"/>
    </contour>
  </outline>
</glyph>
<glyph name="J" format="2">
  <advance width="548"/>
  <unicode hex="004A"/>
  <outline>
    <contour>
      <point x="184" y="-10" type="curve" smooth="yes"/>
      <point x="385" y="-10"/>
      <point x="506" y="82"/>
      <point x="506" y="295" type="curve" smooth="yes"/>
      <point x="506" y="760" type="line"/>
      <point x="297" y="760" type="line"/>
      <point x="297" y="334" type="line" smooth="yes"/>
      <point x="297" y="216"/>
      <point x="250" y="175"/>
      <point x="163" y="175" type="curve" smooth="yes"/>
      <point x="133" y="175"/>
      <point x="106" y="177"/>
      <point x="77" y="185" type="curve"/>
      <point x="42" y="11" type="line"/>
      <point x="83" y="-3"/>
      <point x="131" y="-10"/>
    </contour>
  </outline>
</glyph>
<glyph name="K" format="2">
  <advance width="663"/>
  <unicode hex="004B"/>
  <outline>
    <contour>
      <point x="42" y="0" type="line"/>
      <point x="250" y="0" type="line"/>
      <point x="250" y="760" type="line"/>
      <point x="42" y="760" type="line"/>
    </contour>
    <contour>
      <point x="224" y="321" type="line"/>
      <point x="275" y="321" type="line"/>
      <point x="419" y="0" type="line"/>
      <point x="649" y="0" type="line"/>
      <point x="453" y="468" type="line"/>
      <point x="287" y="419" type="line"/>
      <point x="224" y="419" type="line"/>
    </contour>
    <contour>
      <point x="270" y="397" type="line"/>
      <point x="429" y="326" type="line"/>
      <point x="643" y="760" type="line"/>
      <point x="426" y="760" type="line"/>
    </contour>
  </outline>
</glyph>
<glyph name="L" format="2">
  <advance width="478"/>
  <unicode hex="004C"/>
  <outline>
    <contour>
      <point x="42" y="0" type="line"/>
      <point x="250" y="0" type="line"/>
      <point x="250" y="760" type="line"/>
      <point x="42" y="760" type="line"/>
    </contour>
    <contour>
      <point x="110" y="0" type="line"/>
      <point x="454" y="0" type="line"/>
      <point x="454" y="164" type="line"/>
      <point x="110" y="164" type="line"/>
    </contour>
  </outline>
</glyph>
<glyph name="M" format="2">
  <advance width="695"/>
  <unicode hex="004D"/>
  <outline>
    <contour>
      <point x="42" y="0" type="line"/>
      <point x="208" y="0" type="line"/>
      <point x="208" y="760" type="line"/>
      <point x="42" y="760" type="line"/>
    </contour>
    <contour>
      <point x="653" y="0" type="line"/>
      <point x="653" y="760" type="line"/>
      <point x="487" y="760" type="line"/>
      <point x="487" y="0" type="line"/>
    </contour>
    <contour>
      <point x="578" y="518" type="line"/>
      <point x="487" y="760" type="line"/>
      <point x="335" y="467" type="line"/>
      <point x="360" y="467" type="line"/>
      <point x="208" y="760" type="line"/>
      <point x="118" y="518" type="line"/>
      <point x="318" y="190" type="line"/>
      <point x="378" y="190" type="line"/>
    </contour>
  </outline>
</glyph>
<glyph name="N" format="2">
  <advance width="634"/>
  <unicode hex="004E"/>
  <outline>
    <contour>
      <point x="42" y="0" type="line"/>
      <point x="206" y="0" type="line"/>
      <point x="206" y="760" type="line"/>
      <point x="42" y="760" type="line"/>
    </contour>
    <contour>
      <point x="90" y="570" type="line"/>
      <point x="428" y="0" type="line"/>
      <point x="544" y="190" type="line"/>
      <point x="206" y="760" type="line"/>
    </contour>
    <contour>
      <point x="428" y="0" type="line"/>
      <point x="592" y="0" type="line"/>
      <point x="592" y="760" type="line"/>
      <point x="428" y="760" type="line"/>
    </contour>
  </outline>
</glyph>
<glyph name="O" format="2">
  <advance width="708"/>
  <unicode hex="004F"/>
  <outline>
    <contour>
      <point x="344" y="-10" type="curve" smooth="yes"/>
      <point x="363" y="-10" type="line" smooth="yes"/>
      <point x="555" y="-10"/>
      <point x="676" y="110"/>
      <point x="676" y="383" type="curve" smooth="yes"/>
      <point x="676" y="653"/>
      <point x="555" y="770"/>
      <point x="363" y="770" type="curve" smooth="yes"/>
      <point x="344" y="770" type="line" smooth="yes"/>
      <point x="152" y="770"/>
      <point x="32" y="653"/>
      <point x="32" y="383" type="curve" smooth="yes"/>
      <point x="32" y="110"/>
      <point x="152" y="-10"/>
    </contour>
    <contour>
      <point x="349" y="163" type="line" smooth="yes"/>
      <point x="278" y="163"/>
      <point x="241" y="220"/>
      <point x="241" y="383" type="curve" smooth="yes"/>
      <point x="241" y="542"/>
      <point x="278" y="597"/>
      <point x="349" y="597" type="curve" smooth="yes"/>
      <point x="358" y="597" type="line" smooth="yes"/>
      <point x="430" y="597"/>
      <point x="466" y="542"/>
      <point x="466" y="383" type="curve" smooth="yes"/>
      <point x="466" y="220"/>
      <point x="430" y="163"/>
      <point x="358" y="163" type="curve" smooth="yes"/>
    </contour>
  </outline>
</glyph>
<glyph name="P" format="2">
  <advance width="583"/>
  <unicode hex="0050"/>
  <outline>
    <contour>
      <point x="42" y="0" type="line"/>
      <point x="250" y="0" type="line"/>
      <point x="250" y="760" type="line"/>
      <point x="42" y="760" type="line"/>
    </contour>
    <contour>
      <point x="200" y="593" type="line"/>
      <point x="273" y="593" type="line" smooth="yes"/>
      <point x="338" y="593"/>
      <point x="368" y="548"/>
      <point x="368" y="465" type="curve" smooth="yes"/>
      <point x="368" y="379"/>
      <point x="338" y="336"/>
      <point x="273" y="336" type="curve" smooth="yes"/>
      <point x="200" y="336" type="line"/>
      <point x="200" y="169" type="line"/>
      <point x="283" y="169" type="line" smooth="yes"/>
      <point x="487" y="169"/>
      <point x="559" y="279"/>
      <point x="559" y="465" type="curve" smooth="yes"/>
      <point x="559" y="650"/>
      <point x="487" y="760"/>
      <point x="283" y="760" type="curve" smooth="yes"/>
      <point x="200" y="760" type="line"/>
    </contour>
  </outline>
</glyph>
<glyph name="Q" format="2">
  <advance width="708"/>
  <unicode hex="0051"/>
  <outline>
    <contour>
      <point x="378" y="-130" type="line"/>
      <point x="582" y="-130" type="line"/>
      <point x="476" y="107" type="line"/>
      <point x="293" y="100" type="line"/>
    </contour>
    <component base="O"/>
  </outline>
</glyph>
<glyph name="R" format="2">
  <advance width="594"/>
  <unicode hex="0052"/>
  <outline>
    <contour>
      <point x="363" y="0" type="line"/>
      <point x="573" y="0" type="line"/>
      <point x="515" y="179" type="line" smooth="yes"/>
      <point x="497" y="231"/>
      <point x="468" y="260"/>
      <point x="418" y="260" type="curve"/>
      <point x="297" y="260" type="line"/>
    </contour>
    <contour>
      <point x="42" y="0" type="line"/>
      <point x="250" y="0" type="line"/>
      <point x="250" y="760" type="line"/>
      <point x="42" y="760" type="line"/>
    </contour>
    <contour>
      <point x="200" y="593" type="line"/>
      <point x="279" y="593" type="line" smooth="yes"/>
      <point x="344" y="593"/>
      <point x="374" y="548"/>
      <point x="374" y="465" type="curve" smooth="yes"/>
      <point x="374" y="379"/>
      <point x="344" y="336"/>
      <point x="279" y="336" type="curve" smooth="yes"/>
      <point x="200" y="336" type="line"/>
      <point x="200" y="205" type="line"/>
      <point x="295" y="205" type="line" smooth="yes"/>
      <point x="487" y="205"/>
      <point x="565" y="309"/>
      <point x="565" y="483" type="curve" smooth="yes"/>
      <point x="565" y="657"/>
      <point x="481" y="760"/>
      <point x="288" y="760" type="curve" smooth="yes"/>
      <point x="200" y="760" type="line"/>
    </contour>
  </outline>
</glyph>
<glyph name="S" format="2">
  <advance width="576"/>
  <unicode hex="0053"/>
  <outline>
    <contour>
      <point x="546" y="215" type="curve" smooth="yes"/>
      <point x="546" y="372"/>
      <point x="460" y="429"/>
      <point x="339" y="462" type="curve" smooth="yes"/>
      <point x="288" y="480" type="line" smooth="yes"/>
      <point x="218" y="503"/>
      <point x="206" y="523"/>
      <point x="206" y="554" type="curve" smooth="yes"/>
      <point x="206" y="585"/>
      <point x="232" y="609"/>
      <point x="294" y="609" type="curve" smooth="yes"/>
      <point x="329" y="609" type="line" smooth="yes"/>
      <point x="398" y="609"/>
      <point x="462" y="600"/>
      <point x="514" y="585" type="curve"/>
      <point x="543" y="739" type="line"/>
      <point x="490" y="755"/>
      <point x="410" y="770"/>
      <point x="351" y="770" type="curve" smooth="yes"/>
      <point x="322" y="770" type="line" smooth="yes"/>
      <point x="132" y="770"/>
      <point x="38" y="679"/>
      <point x="38" y="535" type="curve" smooth="yes"/>
      <point x="39" y="391"/>
      <point x="131" y="332"/>
      <point x="243" y="298" type="curve" smooth="yes"/>
      <point x="294" y="279" type="line" smooth="yes"/>
      <point x="363" y="252"/>
      <point x="378" y="238"/>
      <point x="378" y="205" type="curve" smooth="yes"/>
      <point x="378" y="176"/>
      <point x="352" y="152"/>
      <point x="289" y="152" type="curve" smooth="yes"/>
      <point x="255" y="152" type="line" smooth="yes"/>
      <point x="177" y="152"/>
      <point x="107" y="160"/>
      <point x="48" y="179" type="curve"/>
      <point x="20" y="23" type="line"/>
      <point x="79" y="6"/>
      <point x="168" y="-10"/>
      <point x="234" y="-10" type="curve" smooth="yes"/>
      <point x="263" y="-10" type="line" smooth="yes"/>
      <point x="479" y="-10"/>
      <point x="547" y="91"/>
    </contour>
  </outline>
</glyph>
<glyph name="T" format="2">
  <advance width="548"/>
  <unicode hex="0054"/>
  <outline>
    <contour>
      <point x="170" y="0" type="line"/>
      <point x="378" y="0" type="line"/>
      <point x="378" y="760" type="line"/>
      <point x="170" y="760" type="line"/>
    </contour>
    <contour>
      <point x="24" y="596" type="line"/>
      <point x="524" y="596" type="line"/>
      <point x="524" y="760" type="line"/>
      <point x="24" y="760" type="line"/>
    </contour>
  </outline>
</glyph>
<glyph name="U" format="2">
  <advance width="639"/>
  <unicode hex="0055"/>
  <outline>
    <contour>
      <point x="319" y="-10" type="curve" smooth="yes"/>
      <point x="512" y="-10"/>
      <point x="597" y="78"/>
      <point x="597" y="279" type="curve" smooth="yes"/>
      <point x="597" y="760" type="line"/>
      <point x="389" y="760" type="line"/>
      <point x="389" y="249" type="line" smooth="yes"/>
      <point x="389" y="183"/>
      <point x="365" y="163"/>
      <point x="319" y="163" type="curve" smooth="yes"/>
      <point x="275" y="163"/>
      <point x="250" y="183"/>
      <point x="250" y="249" type="curve" smooth="yes"/>
      <point x="250" y="760" type="line"/>
      <point x="42" y="760" type="line"/>
      <point x="42" y="279" type="line" smooth="yes"/>
      <point x="42" y="78"/>
      <point x="125" y="-10"/>
    </contour>
  </outline>
</glyph>
<glyph name="V" format="2">
  <advance width="604"/>
  <unicode hex="0056"/>
  <outline>
    <contour>
      <point x="589" y="760" type="line"/>
      <point x="423" y="760" type="line"/>
      <point x="320" y="0" type="line"/>
      <point x="467" y="0" type="line"/>
    </contour>
    <contour>
      <point x="237" y="760" type="line"/>
      <point x="14" y="760" type="line"/>
      <point x="138" y="0" type="line"/>
      <point x="346" y="0" type="line"/>
    </contour>
    <contour>
      <point x="416" y="172" type="line"/>
      <point x="226" y="172" type="line"/>
      <point x="226" y="0" type="line"/>
      <point x="416" y="0" type="line"/>
    </contour>
  </outline>
</glyph>
<glyph name="W" format="2">
  <advance width="741"/>
  <unicode hex="0057"/>
  <outline>
    <contour>
      <point x="726" y="760" type="line"/>
      <point x="553" y="760" type="line"/>
      <point x="490" y="187" type="line"/>
      <point x="517" y="187" type="line"/>
      <point x="450" y="760" type="line"/>
      <point x="312" y="760" type="line"/>
      <point x="247" y="187" type="line"/>
      <point x="276" y="187" type="line"/>
      <point x="206" y="760" type="line"/>
      <point x="15" y="760" type="line"/>
      <point x="119" y="0" type="line"/>
      <point x="310" y="0" type="line"/>
      <point x="372" y="501" type="line"/>
      <point x="344" y="501" type="line"/>
      <point x="416" y="0" type="line"/>
      <point x="624" y="0" type="line"/>
    </contour>
  </outline>
</glyph>
<glyph name="X" format="2">
  <advance width="610"/>
  <unicode hex="0058"/>
  <outline>
    <contour>
      <point x="351" y="0" type="line"/>
      <point x="597" y="0" type="line"/>
      <point x="386" y="430" type="line"/>
      <point x="263" y="760" type="line"/>
      <point x="17" y="760" type="line"/>
      <point x="224" y="345" type="line"/>
    </contour>
    <contour>
      <point x="14" y="0" type="line"/>
      <point x="168" y="0" type="line"/>
      <point x="276" y="320" type="line"/>
      <point x="421" y="342" type="line"/>
      <point x="592" y="760" type="line"/>
      <point x="438" y="760" type="line"/>
      <point x="333" y="470" type="line"/>
      <point x="189" y="437" type="line"/>
    </contour>
  </outline>
</glyph>
<glyph name="Y" format="2">
  <advance width="612"/>
  <unicode hex="0059"/>
  <outline>
    <contour>
      <point x="598" y="760" type="line"/>
      <point x="444" y="760" type="line"/>
      <point x="280" y="204" type="line"/>
      <point x="410" y="204" type="line"/>
    </contour>
    <contour>
      <point x="242" y="760" type="line"/>
      <point x="14" y="760" type="line"/>
      <point x="202" y="204" type="line"/>
      <point x="391" y="204" type="line"/>
    </contour>
    <contour>
      <point x="410" y="264" type="line"/>
      <point x="202" y="264" type="line"/>
      <point x="202" y="0" type="line"/>
      <point x="410" y="0" type="line"/>
    </contour>
  </outline>
</glyph>
<glyph name="Z" format="2">
  <advance width="560"/>
  <unicode hex="005A"/>
  <outline>
    <contour>
      <point x="42" y="164" type="line"/>
      <point x="266" y="148" type="line"/>
      <point x="518" y="596" type="line"/>
      <point x="294" y="612" type="line"/>
    </contour>
    <contour>
      <point x="42" y="596" type="line"/>
      <point x="518" y="596" type="line"/>
      <point x="518" y="760" type="line"/>
      <point x="42" y="760" type="line"/>
    </contour>
    <contour>
      <point x="42" y="0" type="line"/>
      <point x="518" y="0" type="line"/>
      <point x="518" y="164" type="line"/>
      <point x="42" y="164" type="line"/>
    </contour>
  </outline>
</glyph>
